<?xml version="1.0" encoding="utf-8"?>
<svg version="1.1" id="Layer_1" xmlns="http://www.w3.org/2000/svg" xmlns:xlink="http://www.w3.org/1999/xlink" x="0px" y="0px"
	 viewBox="-5 -3 153 156" style="enable-background:new 0 0 139.3 147.2;" xml:space="preserve">
<style type="text/css">
	.st0{fill:none;stroke:#000000;stroke-width:6;stroke-linecap:round;stroke-linejoin:round;stroke-miterlimit:10;}
</style>
<g>
	<path class="st0" d="M70.2,73.3c15-28.7,44.3-22.7,56.5-6.8s5.4,46.2-9.3,47.8"/>
	<path class="st0" d="M70.2,73.3C53.9,45.4,75.7,23,95.6,21.1c24.5-2.4,43.3,20.4,37.7,32.6"/>
	<path class="st0" d="M70.2,73.3c-31.3-0.9-41-27.5-32.8-48.8c8.9-23,42.4-24.2,51.2-12.3"/>
	<path class="st0" d="M70.2,73.3c-18,26.9-49.9,21.5-60.3,4.4S5.2,32.5,25.3,30"/>
	<path class="st0" d="M70.2,73.3C83.5,102.8,60,126.8,40,126.8c-18.8,0-39.3-14.2-33.1-35.3"/>
	<path class="st0" d="M70.2,73.3c32.1,4.4,43.1,34.5,32.4,51.3s-39.7,23.9-49.5,10.3"/>
</g>
</svg>
