<?xml version="1.0" ?><!DOCTYPE svg  PUBLIC '-//W3C//DTD SVG 1.1//EN'  'http://www.w3.org/Graphics/SVG/1.1/DTD/svg11.dtd'><svg height="24px" style="enable-background:new 0 0 29.042 24;" version="1.1" viewBox="0 0 29.042 24" width="29.042px" xml:space="preserve" xmlns="http://www.w3.org/2000/svg" xmlns:xlink="http://www.w3.org/1999/xlink"><g id="Internet_2"/><g id="Linkedin"/><g id="Linkedin_2"><g><path d="M8.021,8.015h-5c-0.276,0-0.5,0.224-0.5,0.5v15c0,0.276,0.224,0.5,0.5,0.5h5c0.276,0,0.5-0.224,0.5-0.5v-15    C8.521,8.238,8.297,8.015,8.021,8.015z M7.521,23.015h-4v-14h4V23.015z"/><path d="M5.727-0.015c-1.768,0-3.206,1.456-3.206,3.246c0,1.791,1.438,3.247,3.206,3.247s3.206-1.457,3.206-3.247    C8.933,1.441,7.495-0.015,5.727-0.015z M5.727,5.479c-1.216,0-2.206-1.008-2.206-2.247c0-1.238,0.99-2.246,2.206-2.246    c1.217,0,2.206,1.008,2.206,2.246C7.933,4.471,6.944,5.479,5.727,5.479z"/><path d="M20.521,7.909c-2.438,0-4.097,0.6-5,1.051V8.515c0-0.276-0.224-0.5-0.5-0.5h-4c-0.276,0-0.5,0.224-0.5,0.5v15    c0,0.276,0.224,0.5,0.5,0.5h4c0.276,0,0.5-0.224,0.5-0.5v-8.238c0-1.285,1.32-2.246,2.5-2.246s2.5,0.961,2.5,2.246v8.238    c0,0.276,0.224,0.5,0.5,0.5h5c0.276,0,0.5-0.224,0.5-0.5v-9.611C26.521,10.598,23.83,7.909,20.521,7.909z M25.521,23.015h-4    v-7.738c0-1.729-1.636-3.246-3.5-3.246s-3.5,1.517-3.5,3.246v7.738h-3v-14h3V9.84c0,0.191,0.109,0.364,0.281,0.448    c0.173,0.086,0.378,0.062,0.527-0.055c0.017-0.013,1.745-1.324,5.191-1.324c2.757,0,5,2.24,5,4.994V23.015z"/></g></g></svg>