<svg width="0" height="0" class="hidden">
  <symbol id="discord" xmlns="http://www.w3.org/2000/svg" viewBox="0 0 128 128">
    <title></title>
    <path d="M45.23,57.2c-6.16,0-11.17,5.6-11.17,12.48s5,12.47,11.17,12.47,11.16-5.59,11.16-12.47S51.38,57.2,45.23,57.2Zm0,21c-4,0-7.17-3.8-7.17-8.47s3.21-8.48,7.17-8.48,7.16,3.8,7.16,8.48S49.18,78.15,45.23,78.15Z"></path>
    <path d="M121.83,59.58a156.78,156.78,0,0,0-11.52-31,2.1,2.1,0,0,0-.71-.77,87.08,87.08,0,0,0-15.23-7.17C84.55,17.07,79.91,17,79.72,17a2,2,0,0,0-2,1.72l-.6,4.17a133.14,133.14,0,0,0-26.28,0l-.6-4.17a2,2,0,0,0-2-1.72c-.19,0-4.83,0-14.65,3.61A87.08,87.08,0,0,0,18.4,27.81a2.1,2.1,0,0,0-.71.77,156.72,156.72,0,0,0-11.52,31C1,80.46,0,90.91,0,91.34a2,2,0,0,0,.49,1.5,55.2,55.2,0,0,0,18.2,12.74A76.32,76.32,0,0,0,38.48,111a2,2,0,0,0,1.92-1l5.4-9.25A105.08,105.08,0,0,0,64,102.24a105.08,105.08,0,0,0,18.2-1.51L87.6,110a2,2,0,0,0,1.72,1h.2a76.32,76.32,0,0,0,19.78-5.38,55.2,55.2,0,0,0,18.2-12.74,2,2,0,0,0,.49-1.5C128,90.91,127.05,80.46,121.83,59.58Zm-14.06,42.31a76.76,76.76,0,0,1-17.39,4.92l-4.08-7c4.68-1.24,14.42-4.46,21.83-11.2a2,2,0,1,0-2.69-3c-9,8.23-22.46,10.84-22.6,10.87h-.06A96.59,96.59,0,0,1,64,98.24a96.59,96.59,0,0,1-18.78-1.7h-.06c-.14,0-13.55-2.64-22.6-10.87a2,2,0,1,0-2.69,3c7.41,6.74,17.15,10,21.83,11.2l-4.08,7a76.08,76.08,0,0,1-17.39-4.92A52.24,52.24,0,0,1,4.08,90.8c.33-2.91,1.68-13.07,6-30.24A156.25,156.25,0,0,1,21,30.92,88.17,88.17,0,0,1,35,24.4a61.35,61.35,0,0,1,11.58-3.19l.35,2.39c-4,1-13.85,3.86-21.65,9.53a2,2,0,1,0,2.36,3.23c8.82-6.41,21-9.06,21.86-9.25A118.4,118.4,0,0,1,64,26.27a117.64,117.64,0,0,1,14.51.84c.91.19,13,2.83,21.86,9.25a2,2,0,1,0,2.36-3.23c-7.8-5.67-17.61-8.52-21.65-9.53l.35-2.39A61.75,61.75,0,0,1,93,24.4a88.17,88.17,0,0,1,14,6.52A156.25,156.25,0,0,1,118,60.56c4.29,17.17,5.64,27.33,6,30.24A52.24,52.24,0,0,1,107.77,101.89Z"></path>
    <path d="M82.77,57.2c-6.15,0-11.16,5.6-11.16,12.48s5,12.47,11.16,12.47,11.17-5.59,11.17-12.47S88.93,57.2,82.77,57.2Zm0,21c-4,0-7.16-3.8-7.16-8.47s3.21-8.48,7.16-8.48,7.17,3.8,7.17,8.48S86.73,78.15,82.77,78.15Z"></path>
  </symbol>
  <symbol version="1.1" xml:space="preserve" xmlns="http://www.w3.org/2000/svg" xmlns:xlink="http://www.w3.org/1999/xlink" viewBox="0 0 29.042 24" id="linkedin">
    <g id="Internet_2"></g>
    <g id="Linkedin"></g>
    <g id="Linkedin_2">
      <g>
        <path d="M8.021,8.015h-5c-0.276,0-0.5,0.224-0.5,0.5v15c0,0.276,0.224,0.5,0.5,0.5h5c0.276,0,0.5-0.224,0.5-0.5v-15    C8.521,8.238,8.297,8.015,8.021,8.015z M7.521,23.015h-4v-14h4V23.015z"></path>
        <path d="M5.727-0.015c-1.768,0-3.206,1.456-3.206,3.246c0,1.791,1.438,3.247,3.206,3.247s3.206-1.457,3.206-3.247    C8.933,1.441,7.495-0.015,5.727-0.015z M5.727,5.479c-1.216,0-2.206-1.008-2.206-2.247c0-1.238,0.99-2.246,2.206-2.246    c1.217,0,2.206,1.008,2.206,2.246C7.933,4.471,6.944,5.479,5.727,5.479z"></path>
        <path d="M20.521,7.909c-2.438,0-4.097,0.6-5,1.051V8.515c0-0.276-0.224-0.5-0.5-0.5h-4c-0.276,0-0.5,0.224-0.5,0.5v15    c0,0.276,0.224,0.5,0.5,0.5h4c0.276,0,0.5-0.224,0.5-0.5v-8.238c0-1.285,1.32-2.246,2.5-2.246s2.5,0.961,2.5,2.246v8.238    c0,0.276,0.224,0.5,0.5,0.5h5c0.276,0,0.5-0.224,0.5-0.5v-9.611C26.521,10.598,23.83,7.909,20.521,7.909z M25.521,23.015h-4    v-7.738c0-1.729-1.636-3.246-3.5-3.246s-3.5,1.517-3.5,3.246v7.738h-3v-14h3V9.84c0,0.191,0.109,0.364,0.281,0.448    c0.173,0.086,0.378,0.062,0.527-0.055c0.017-0.013,1.745-1.324,5.191-1.324c2.757,0,5,2.24,5,4.994V23.015z"></path>
      </g>
    </g>
  </symbol>
  <symbol xmlns="http://www.w3.org/2000/svg" viewBox="0 0 48 48" id="mail">
    <title></title>
    <g id="_8-Email">
      <path d="M45,7H3a3,3,0,0,0-3,3V38a3,3,0,0,0,3,3H45a3,3,0,0,0,3-3V10A3,3,0,0,0,45,7Zm-.64,2L24,24.74,3.64,9ZM2,37.59V10.26L17.41,22.17ZM3.41,39,19,23.41l4.38,3.39a1,1,0,0,0,1.22,0L29,23.41,44.59,39ZM46,37.59,30.59,22.17,46,10.26Z"></path>
    </g>
  </symbol>
</svg>